<svg id="Layer_1" data-name="Layer 1" xmlns="http://www.w3.org/2000/svg" viewBox="0 0 256 256"><defs><style>.cls-1{fill:#1c4893;}.cls-2{fill:#fff;}</style></defs><title>skLogomark</title><rect class="cls-1" x="-2" y="-1" width="260" height="259"/><circle class="cls-1" cx="127" cy="129" r="112"/><circle class="cls-2" cx="191.69" cy="118.61" r="47.31"/><path class="cls-2" d="M23,108.66c0,.58,0,1.16,0,1.75a49,49,0,1,0,98,0c0-.59,0-1.17,0-1.75Z"/><path class="cls-1" d="M24,97c0,.58,0,1.16,0,1.75a49,49,0,1,0,98,0c0-.59,0-1.17,0-1.75Z"/><path class="cls-2" d="M81.92,199.27a3.47,3.47,0,0,0-.05.46c-.1,7.11,21.76,13.2,48.83,13.59s49.1-5.06,49.2-12.18a3.47,3.47,0,0,0,0-.46Z"/></svg>